<?xml version="1.0" encoding="utf-8"?>
<!-- Generator: Adobe Illustrator 16.0.3, SVG Export Plug-In . SVG Version: 6.00 Build 0)  -->
<!DOCTYPE svg PUBLIC "-//W3C//DTD SVG 1.1//EN" "http://www.w3.org/Graphics/SVG/1.1/DTD/svg11.dtd">
<svg version="1.1" id="Layer_1" xmlns="http://www.w3.org/2000/svg" xmlns:xlink="http://www.w3.org/1999/xlink" x="0px" y="0px"
	 width="38px" height="38px" viewBox="0 0 38 38" enable-background="new 0 0 38 38" xml:space="preserve">
<path fill-rule="evenodd" clip-rule="evenodd" fill="#FFFFFF" d="M35.289,28.161c0,1.663-0.232,2.999-1.273,4.347
	c-0.889,1.153-1.998,1.787-3.436,2.009L4.494,38.162c-0.974,0.152-1.782-0.501-1.782-1.498v-23.25h1.974v21.914l21.703-6.091
	c0.229-0.082,0.486,0.018,0.6,0.24c0.398,0.792,0.863,1.508,1.359,1.895c1.367,1.068,3.061,0.863,4.109-0.496
	c0.775-1.004,0.857-1.943,0.857-3.141V13.414h1.975V28.161L35.289,28.161z M13.621,20.656v-5.851H7.681v5.851H13.621L13.621,20.656z
	 M30.32,20.656v-5.851h-5.941v5.851H30.32L30.32,20.656z M21.969,28.648v-5.853H16.03v5.853H21.969L21.969,28.648z M13.621,28.648
	v-5.853H7.681v5.853H13.621L13.621,28.648z M21.969,20.656v-5.851H16.03v5.851H21.969L21.969,20.656z M3.445,3.374h3.582v2.888
	c0,1.701,1.381,3.084,3.083,3.084c1.703,0,3.084-1.381,3.084-3.084V3.374h11.687v2.888c0,1.701,1.381,3.084,3.084,3.084
	c1.701,0,3.082-1.381,3.082-3.084V3.374h3.545c0.383,0,0.697,0.313,0.697,0.695v7.811c-10.848,0-21.694,0-32.541,0V4.069
	C2.748,3.687,3.062,3.374,3.445,3.374L3.445,3.374z M25.975,2.123v4.139c0,1.098,0.891,1.99,1.99,1.99s1.988-0.892,1.988-1.99V2.123
	c0-1.099-0.889-1.99-1.988-1.99S25.975,1.024,25.975,2.123L25.975,2.123z M8.12,2.123v4.139c0,1.098,0.892,1.99,1.99,1.99
	c1.1,0,1.989-0.892,1.989-1.99V2.123c0-1.099-0.89-1.99-1.989-1.99C9.012,0.133,8.12,1.024,8.12,2.123z"/>
</svg>
